{
    "asset": {
        "version": "2.0",
        "generator": "Open Asset Import Library (assimp v3.1.128981410)"
    },
    "accessors": [
        {
            "bufferView": 0,
            "byteOffset": 0,
            "componentType": 5126,
            "count": 251,
            "type": "VEC3",
            "max": [
                0.915260910987854,
                10.663949966430664,
                2.9790596961975099
            ],
            "min": [
                -0.40730106830596926,
                5.090138912200928,
                -2.9790596961975099
            ]
        },
        {
            "bufferView": 1,
            "byteOffset": 0,
            "componentType": 5126,
            "count": 251,
            "type": "VEC3",
            "max": [
                0.9973655343055725,
                0.8512068390846252,
                0.9877050518989563
            ],
            "min": [
                -0.9918777346611023,
                -0.9635643362998962,
                -0.9877050518989563
            ]
        },
        {
            "bufferView": 2,
            "byteOffset": 0,
            "componentType": 5126,
            "count": 251,
            "type": "VEC2",
            "max": [
                0.9706101417541504,
                0.9999999403953552
            ],
            "min": [
                2.7939677238464357e-8,
                0.0000011920928955078126
            ]
        },
        {
            "bufferView": 3,
            "byteOffset": 0,
            "componentType": 5123,
            "count": 642,
            "type": "SCALAR",
            "max": [
                250.0
            ],
            "min": [
                0.0
            ]
        },
        {
            "bufferView": 4,
            "byteOffset": 0,
            "componentType": 5126,
            "count": 163,
            "type": "VEC3",
            "max": [
                1.4050159454345704,
                10.663949966430664,
                0.8027750253677368
            ],
            "min": [
                -0.9180049896240234,
                -0.05738067626953125,
                -0.8027750253677368
            ]
        },
        {
            "bufferView": 5,
            "byteOffset": 0,
            "componentType": 5126,
            "count": 163,
            "type": "VEC3",
            "max": [
                0.9999999403953552,
                0.9279980659484863,
                0.9999999403953552
            ],
            "min": [
                -0.999927818775177,
                -0.9999999403953552,
                -0.9999999403953552
            ]
        },
        {
            "bufferView": 6,
            "byteOffset": 0,
            "componentType": 5126,
            "count": 163,
            "type": "VEC2",
            "max": [
                0.7956300973892212,
                0.9999998211860657
            ],
            "min": [
                2.384185791015625e-7,
                0.000001430511474609375
            ]
        },
        {
            "bufferView": 7,
            "byteOffset": 0,
            "componentType": 5123,
            "count": 330,
            "type": "SCALAR",
            "max": [
                162.0
            ],
            "min": [
                0.0
            ]
        },
        {
            "bufferView": 8,
            "byteOffset": 0,
            "componentType": 5126,
            "count": 83,
            "type": "VEC3",
            "max": [
                1.2511889934539796,
                9.291430473327637,
                0.7997610569000244
            ],
            "min": [
                -0.32854992151260378,
                5.3629069328308109,
                -0.7997610569000244
            ]
        },
        {
            "bufferView": 9,
            "byteOffset": 0,
            "componentType": 5126,
            "count": 83,
            "type": "VEC3",
            "max": [
                0.999691367149353,
                0.9708088040351868,
                0.9999897480010986
            ],
            "min": [
                -0.999691367149353,
                -0.8989500403404236,
                -0.9999897480010986
            ]
        },
        {
            "bufferView": 10,
            "byteOffset": 0,
            "componentType": 5126,
            "count": 83,
            "type": "VEC2",
            "max": [
                0.7901028990745544,
                0.9999997615814209
            ],
            "min": [
                2.384185791015625e-7,
                0.0000013113021850585938
            ]
        },
        {
            "bufferView": 11,
            "byteOffset": 0,
            "componentType": 5123,
            "count": 234,
            "type": "SCALAR",
            "max": [
                82.0
            ],
            "min": [
                0.0
            ]
        },
        {
            "bufferView": 12,
            "byteOffset": 0,
            "componentType": 5126,
            "count": 120,
            "type": "VEC3",
            "max": [
                1.2511889934539796,
                5.3629069328308109,
                0.814409077167511
            ],
            "min": [
                -0.19429202377796174,
                0.6256527900695801,
                -0.814409077167511
            ]
        },
        {
            "bufferView": 13,
            "byteOffset": 0,
            "componentType": 5126,
            "count": 120,
            "type": "VEC3",
            "max": [
                0.9977006316184998,
                0.2606379985809326,
                0.9999998211860657
            ],
            "min": [
                -0.9999966621398926,
                -0.42948493361473086,
                -0.9999998211860657
            ]
        },
        {
            "bufferView": 14,
            "byteOffset": 0,
            "componentType": 5126,
            "count": 120,
            "type": "VEC2",
            "max": [
                0.9999988079071045,
                1.0
            ],
            "min": [
                8.940696716308594e-8,
                0.01410144567489624
            ]
        },
        {
            "bufferView": 15,
            "byteOffset": 0,
            "componentType": 5123,
            "count": 300,
            "type": "SCALAR",
            "max": [
                119.0
            ],
            "min": [
                0.0
            ]
        },
        {
            "bufferView": 16,
            "byteOffset": 0,
            "componentType": 5126,
            "count": 40,
            "type": "VEC3",
            "max": [
                0.7504019737243652,
                10.33842658996582,
                0.4818649888038635
            ],
            "min": [
                0.45276498794555666,
                10.006082534790039,
                -0.47530803084373476
            ]
        },
        {
            "bufferView": 17,
            "byteOffset": 0,
            "componentType": 5126,
            "count": 40,
            "type": "VEC3",
            "max": [
                0.9906479120254517,
                0.9906479120254517,
                0.9284763336181641
            ],
            "min": [
                -0.26482483744621279,
                -0.5156446695327759,
                -0.928476095199585
            ]
        },
        {
            "bufferView": 18,
            "byteOffset": 0,
            "componentType": 5126,
            "count": 40,
            "type": "VEC2",
            "max": [
                0.9999628067016602,
                1.0
            ],
            "min": [
                0.0,
                0.0000011324882507324219
            ]
        },
        {
            "bufferView": 19,
            "byteOffset": 0,
            "componentType": 5123,
            "count": 144,
            "type": "SCALAR",
            "max": [
                39.0
            ],
            "min": [
                0.0
            ]
        }
    ],
    "buffers": [
        {
            "byteLength": 24324,
            "uri": "newestLady.bin"
        }
    ],
    "bufferViews": [
        {
            "buffer": 0,
            "byteOffset": 0,
            "byteLength": 3012,
            "target": 34962
        },
        {
            "buffer": 0,
            "byteOffset": 3012,
            "byteLength": 3012,
            "target": 34962
        },
        {
            "buffer": 0,
            "byteOffset": 6024,
            "byteLength": 2008,
            "target": 34962
        },
        {
            "buffer": 0,
            "byteOffset": 8032,
            "byteLength": 1284,
            "target": 34963
        },
        {
            "buffer": 0,
            "byteOffset": 9316,
            "byteLength": 1956,
            "target": 34962
        },
        {
            "buffer": 0,
            "byteOffset": 11272,
            "byteLength": 1956,
            "target": 34962
        },
        {
            "buffer": 0,
            "byteOffset": 13228,
            "byteLength": 1304,
            "target": 34962
        },
        {
            "buffer": 0,
            "byteOffset": 14532,
            "byteLength": 660,
            "target": 34963
        },
        {
            "buffer": 0,
            "byteOffset": 15192,
            "byteLength": 996,
            "target": 34962
        },
        {
            "buffer": 0,
            "byteOffset": 16188,
            "byteLength": 996,
            "target": 34962
        },
        {
            "buffer": 0,
            "byteOffset": 17184,
            "byteLength": 664,
            "target": 34962
        },
        {
            "buffer": 0,
            "byteOffset": 17848,
            "byteLength": 468,
            "target": 34963
        },
        {
            "buffer": 0,
            "byteOffset": 18316,
            "byteLength": 1440,
            "target": 34962
        },
        {
            "buffer": 0,
            "byteOffset": 19756,
            "byteLength": 1440,
            "target": 34962
        },
        {
            "buffer": 0,
            "byteOffset": 21196,
            "byteLength": 960,
            "target": 34962
        },
        {
            "buffer": 0,
            "byteOffset": 22156,
            "byteLength": 600,
            "target": 34963
        },
        {
            "buffer": 0,
            "byteOffset": 22756,
            "byteLength": 480,
            "target": 34962
        },
        {
            "buffer": 0,
            "byteOffset": 23236,
            "byteLength": 480,
            "target": 34962
        },
        {
            "buffer": 0,
            "byteOffset": 23716,
            "byteLength": 320,
            "target": 34962
        },
        {
            "buffer": 0,
            "byteOffset": 24036,
            "byteLength": 288,
            "target": 34963
        }
    ],
    "materials": [
        {
            "name": "pCube9SG",
            "pbrMetallicRoughness": {
                "baseColorFactor": [
                    0.7599999904632568,
                    0.6299999952316284,
                    0.6299999952316284,
                    1.0
                ],
                "metallicFactor": 0.0
            }
        },
        {
            "name": "pCube9SG1",
            "pbrMetallicRoughness": {
                "baseColorFactor": [
                    0.019999999552965165,
                    0.019999999552965165,
                    0.019999999552965165,
                    1.0
                ],
                "metallicFactor": 0.0
            }
        },
        {
            "name": "pCube9SG2",
            "pbrMetallicRoughness": {
                "baseColorFactor": [
                    1.0,
                    0.0,
                    0.0,
                    1.0
                ],
                "metallicFactor": 0.0
            }
        },
        {
            "name": "pCube9SG3",
            "pbrMetallicRoughness": {
                "baseColorFactor": [
                    0.0,
                    0.23000000417232514,
                    0.5,
                    1.0
                ],
                "metallicFactor": 0.0
            }
        },
        {
            "name": "pCube9SG4",
            "pbrMetallicRoughness": {
                "baseColorFactor": [
                    0.0,
                    0.0,
                    0.0,
                    1.0
                ],
                "metallicFactor": 0.0
            }
        }
    ],
    "meshes": [
        {
            "name": "pCube9",
            "primitives": [
                {
                    "mode": 4,
                    "material": 0,
                    "indices": 3,
                    "attributes": {
                        "POSITION": 0,
                        "NORMAL": 1,
                        "TEXCOORD_0": 2
                    }
                }
            ]
        },
        {
            "name": "pCube9",
            "primitives": [
                {
                    "mode": 4,
                    "material": 1,
                    "indices": 7,
                    "attributes": {
                        "POSITION": 4,
                        "NORMAL": 5,
                        "TEXCOORD_0": 6
                    }
                }
            ]
        },
        {
            "name": "pCube9",
            "primitives": [
                {
                    "mode": 4,
                    "material": 2,
                    "indices": 11,
                    "attributes": {
                        "POSITION": 8,
                        "NORMAL": 9,
                        "TEXCOORD_0": 10
                    }
                }
            ]
        },
        {
            "name": "pCube9",
            "primitives": [
                {
                    "mode": 4,
                    "material": 3,
                    "indices": 15,
                    "attributes": {
                        "POSITION": 12,
                        "NORMAL": 13,
                        "TEXCOORD_0": 14
                    }
                }
            ]
        },
        {
            "name": "pCube9",
            "primitives": [
                {
                    "mode": 4,
                    "material": 4,
                    "indices": 19,
                    "attributes": {
                        "POSITION": 16,
                        "NORMAL": 17,
                        "TEXCOORD_0": 18
                    }
                }
            ]
        }
    ],
    "nodes": [
        {
            "name": "RootNode",
            "children": [
                1,
                2
            ]
        },
        {
            "name": "default"
        },
        {
            "name": "pCube9",
            "children": [
                3,
                4,
                5,
                6
            ],
            "mesh": 4
        },
        {
            "name": "pCube9_node",
            "mesh": 0
        },
        {
            "name": "pCube9_node_0",
            "mesh": 1
        },
        {
            "name": "pCube9_node_1",
            "mesh": 2
        },
        {
            "name": "pCube9_node_2",
            "mesh": 3
        }
    ],
    "scenes": [
        {
            "nodes": [
                0
            ]
        }
    ],
    "scene": 0
}